<svg width="45" height="60" viewBox="0 0 45 60" fill="none" xmlns="http://www.w3.org/2000/svg">
<path d="M21.0683 4.01911C19.0587 10.0044 16.6588 15.7873 15.5311 17.3632C15.1408 17.9125 15.1842 17.9704 15.8926 17.8981C17.0925 17.7535 18.437 16.7993 19.4924 15.3247C19.7382 14.9777 19.7526 15.1367 19.6804 19.8787C19.5502 27.7724 18.9575 33.2517 17.8443 36.7214C17.4539 37.8925 16.7889 39.1936 16.3263 39.6273C15.9938 39.9454 15.9938 39.9309 16.413 38.9478C16.6443 38.3985 16.8034 37.9358 16.7889 37.9214C16.76 37.8925 16.5431 37.9503 16.3118 38.037C15.7046 38.2394 14.8516 37.9937 14.3601 37.4877C13.8107 36.9094 13.4637 36.0564 12.871 33.7577C11.4831 28.394 10.1386 25.4448 7.85432 22.7991C7.18929 22.0328 7.16037 21.975 7.47843 21.975C8.27358 21.975 10.8181 22.9437 12.0036 23.681L12.5674 24.0424L12.2927 23.6231C11.5265 22.4377 11.2518 22.0907 10.153 20.9919C8.86633 19.6763 7.04471 18.3752 5.23756 17.4644C4.21109 16.9584 1.40638 15.9463 0.322086 15.7006C-0.155003 15.5849 -0.169461 15.5415 0.741347 16.8427C2.76536 19.7486 4.25446 24.5484 4.26892 28.1483C4.28338 29.0591 4.29783 29.1025 4.50024 28.8422C4.97733 28.1916 5.3243 26.7025 5.41104 24.8086L5.49779 22.9292L6.11945 24.1725C7.34832 26.6736 8.15792 29.1458 8.69284 32.124C8.99645 33.7866 9.03982 38.1382 8.77959 39.8297C8.37478 42.3019 7.40615 45.3524 6.36522 47.4198L5.98933 48.1571L6.84231 47.5788C10.9482 44.803 15.1552 44.2392 18.278 46.0753C19.0442 46.5235 21.0249 48.4607 20.7936 48.533C20.7068 48.5619 20.2442 48.4029 19.7816 48.1716C19.3189 47.9403 18.7985 47.6945 18.625 47.6511L18.2925 47.5499V54.8508L18.278 59.5L26.2873 59.5L26.6777 59.5V54.8508V47.5499L26.3596 47.6511C26.1717 47.6945 25.5934 47.9692 25.0585 48.2294C24.5091 48.5041 24.0754 48.6776 24.0754 48.6053C24.0754 48.3595 25.5356 46.8704 26.2873 46.35C29.3956 44.2103 33.5015 44.6151 37.9688 47.4921L38.9374 48.1138L38.3158 46.7981C35.6556 41.0875 35.2508 34.6396 37.1737 28.3507C37.5929 26.9772 38.4893 24.8086 39.1254 23.6665L39.5446 22.9147V24.505C39.5446 26.1532 39.8627 27.7146 40.3832 28.6832L40.6289 29.1314L40.7301 27.57C40.8313 25.7773 41.2795 23.4207 41.8144 21.8304C42.3204 20.3124 43.7517 17.421 44.4601 16.4957C44.7926 16.0765 45.0384 15.7006 44.995 15.6717C44.9227 15.5849 42.9421 16.1487 41.7855 16.5825C39.9639 17.262 37.9977 18.3318 36.5086 19.4305C35.6267 20.0956 33.8919 21.8738 33.2557 22.7702C32.3738 24.028 32.3738 24.0424 33.1834 23.5653C34.4991 22.7991 36.711 21.975 37.4917 21.975C37.8098 21.975 37.7809 22.0328 37.1158 22.7991C36.1327 23.9412 34.8605 25.9219 34.2099 27.3676C33.4581 28.9868 33.01 30.3458 32.2293 33.2806C31.8678 34.6396 31.4486 36.0709 31.2751 36.4612C30.7402 37.7045 29.598 38.384 28.6583 38.037C28.427 37.9503 28.2246 37.878 28.1957 37.878C28.1089 37.878 28.4848 38.9189 28.774 39.4828L29.0342 39.9743L28.6583 39.6418C28.1523 39.1647 27.5017 37.878 27.068 36.4901C25.9837 33.0493 25.4199 27.7001 25.2898 19.8787C25.2175 15.1367 25.232 14.9777 25.4777 15.3247C26.5331 16.7993 27.8776 17.7535 29.0776 17.8981C29.786 17.9704 29.8294 17.9125 29.439 17.3776C28.2101 15.6138 25.6657 9.41166 23.4826 2.77578C22.9766 1.25777 22.5284 -1.52588e-05 22.4851 -1.52588e-05C22.4417 -1.52588e-05 21.8056 1.80715 21.0683 4.01911Z" fill="black"/>
</svg>
